<svg xmlns="http://www.w3.org/2000/svg" viewBox="0 0 512 512" width="512" height="512">
  <rect width="512" height="512" rx="96" fill="#059669"/>
  <g fill="#ffffff">
    <!-- Top-left corner -->
    <rect x="96" y="96" width="96" height="96" rx="8"/>
    <rect x="116" y="116" width="56" height="56" rx="4" fill="#059669"/>
    <rect x="132" y="132" width="24" height="24" fill="#ffffff"/>
    <!-- Top-right corner -->
    <rect x="320" y="96" width="96" height="96" rx="8"/>
    <rect x="340" y="116" width="56" height="56" rx="4" fill="#059669"/>
    <rect x="356" y="132" width="24" height="24" fill="#ffffff"/>
    <!-- Bottom-left corner -->
    <rect x="96" y="320" width="96" height="96" rx="8"/>
    <rect x="116" y="340" width="56" height="56" rx="4" fill="#059669"/>
    <rect x="132" y="356" width="24" height="24" fill="#ffffff"/>
    <!-- Data modules pattern -->
    <rect x="224" y="96" width="16" height="16"/>
    <rect x="256" y="96" width="16" height="16"/>
    <rect x="288" y="96" width="16" height="16"/>
    <rect x="96" y="224" width="16" height="16"/>
    <rect x="128" y="224" width="16" height="16"/>
    <rect x="160" y="224" width="16" height="16"/>
    <rect x="224" y="224" width="16" height="16"/>
    <rect x="256" y="224" width="16" height="16"/>
    <rect x="288" y="224" width="16" height="16"/>
    <rect x="320" y="224" width="16" height="16"/>
    <rect x="352" y="224" width="16" height="16"/>
    <rect x="384" y="224" width="16" height="16"/>
    <rect x="224" y="256" width="16" height="16"/>
    <rect x="288" y="256" width="16" height="16"/>
    <rect x="352" y="256" width="16" height="16"/>
    <rect x="224" y="288" width="16" height="16"/>
    <rect x="256" y="288" width="16" height="16"/>
    <rect x="320" y="288" width="16" height="16"/>
    <rect x="384" y="288" width="16" height="16"/>
    <rect x="256" y="320" width="16" height="16"/>
    <rect x="288" y="320" width="16" height="16"/>
    <rect x="352" y="320" width="16" height="16"/>
    <rect x="224" y="352" width="16" height="16"/>
    <rect x="288" y="352" width="16" height="16"/>
    <rect x="320" y="352" width="16" height="16"/>
    <rect x="384" y="352" width="16" height="16"/>
    <rect x="256" y="384" width="16" height="16"/>
    <rect x="320" y="384" width="16" height="16"/>
    <rect x="352" y="384" width="16" height="16"/>
  </g>
</svg>
